<svg width="32" height="27" viewBox="0 0 32 27" fill="none" xmlns="http://www.w3.org/2000/svg">
<path d="M30 2.0128C30 2.0128 27.4318 3.53003 26.0036 3.96008C25.2371 3.07872 24.2184 2.45404 23.0853 2.17052C21.9522 1.88701 20.7594 1.95832 19.6681 2.37483C18.5769 2.79134 17.6398 3.53295 16.9838 4.49934C16.3277 5.46575 15.9843 6.61031 16 7.77826V9.05098C13.7633 9.10897 11.5471 8.61292 9.54856 7.607C7.55003 6.60107 5.83132 5.11651 4.54545 3.28553C4.54545 3.28553 -0.545455 14.7401 10.9091 19.831C8.28795 21.6102 5.16548 22.5024 2 22.3765C13.4545 28.7401 27.4545 22.3765 27.4545 7.74007C27.4534 7.38556 27.4193 7.03192 27.3527 6.68371C28.6517 5.4027 30 2.0128 30 2.0128Z" stroke="white" stroke-width="2.74825" stroke-linecap="round" stroke-linejoin="round"/>
</svg>
